<mxfile host="app.diagrams.net" modified="2024-02-24T08:10:50.844Z" agent="Mozilla/5.0 (Macintosh; Intel Mac OS X 10.15; rv:122.0) Gecko/20100101 Firefox/122.0" version="23.1.6" etag="EWEWg1Ycfgj4lgUt8azc" type="github">
  <diagram name="ページ1" id="OEwkLrXwcLxc9KMcJWuE">
    <mxGraphModel>
      <root>
        <mxCell id="0" />
        <mxCell id="1" parent="0" />
      </root>
    </mxGraphModel>
  </diagram>
</mxfile>
